<?xml version="1.0" encoding="UTF-8"?>
<svg width="40px" height="40px" viewBox="0 0 40 40" version="1.1" xmlns="http://www.w3.org/2000/svg" xmlns:xlink="http://www.w3.org/1999/xlink">
    <title>Icon/40/Loop Black</title>
    <g id="Icon/40/Loop-Black" stroke="none" stroke-width="1" fill="none" fill-rule="evenodd">
        <path d="M22.1953268,23.8638796 C22.6398391,24.2331016 23.1087996,24.5778571 23.6333241,24.8247465 C24.2134127,25.0983267 24.8001689,25.2695923 25.4424892,25.3163011 C25.9625686,25.354113 26.5048736,25.2851619 27.0093951,25.1583808 C28.956359,24.664602 30.5588258,22.994206 30.9055454,21.0035211 C30.9966704,20.4763788 31.0322314,19.9447881 30.9655546,19.4131973 C30.927771,19.1240476 30.8855424,18.837122 30.8055302,18.554645 C30.7277405,18.2810648 30.6210576,18.0163815 30.5054844,17.7561467 C30.1054233,16.8508855 29.4097615,16.087975 28.5918589,15.5408147 C27.7428404,14.9736363 26.700459,14.6733654 25.6825258,14.6733654 C24.6712604,14.6755896 23.6888882,15.0514843 22.8665404,15.6275596 C22.0397475,16.2080834 21.3351955,16.9287336 20.6884301,17.700541 C20.0838934,18.4256397 19.5104725,19.1796533 18.9392742,19.9336669 C18.8059205,20.109381 18.6747894,20.2828709 18.5392131,20.4563607 C18.5858869,20.3963066 18.6325607,20.3362524 18.6792345,20.2761982 C17.9835727,21.1814594 17.2434598,22.0689268 16.3410998,22.7717831 C16.4011089,22.7250743 16.4611181,22.6783655 16.5211273,22.6316567 C16.1455144,22.9230307 15.7410082,23.1765928 15.3031635,23.363428 C15.3742855,23.3345131 15.4454075,23.3033739 15.5165294,23.2744589 C15.1987032,23.4079126 14.869764,23.5035545 14.5274896,23.548039 C14.6052792,23.5369179 14.6852914,23.5257968 14.7630811,23.5168998 C14.4208066,23.5613844 14.074087,23.5524875 13.7318125,23.5080029 C13.8096022,23.5191241 13.8896144,23.5302452 13.9674041,23.5391421 C13.5806784,23.4857606 13.2028429,23.3856703 12.8427879,23.2344228 C12.9139099,23.2633377 12.9850319,23.2944769 13.0561538,23.3233919 C12.7049891,23.1743686 12.3738275,22.9830849 12.0715591,22.7517651 C12.1315683,22.7984739 12.1915774,22.8451827 12.2515866,22.8918915 C11.9448731,22.653899 11.6692755,22.3780946 11.4314614,22.071151 C11.4781352,22.1312052 11.524809,22.1912594 11.5714827,22.2513135 C11.3403363,21.9465942 11.1469735,21.6174083 11.0002844,21.2659801 C11.0291777,21.3371554 11.0602936,21.4083308 11.0891869,21.4795061 C10.9402753,21.119181 10.8380374,20.7410621 10.784696,20.3540462 C10.7958088,20.4318942 10.8069216,20.5119665 10.8158118,20.5898145 C10.7646929,20.2005744 10.7646929,19.8068859 10.8158118,19.4154216 C10.804699,19.4932696 10.7935862,19.5733418 10.784696,19.6511899 C10.8380374,19.264174 10.9380527,18.8860551 11.0891869,18.52573 C11.0602936,18.5969053 11.0291777,18.6680806 11.0002844,18.739256 C11.1491961,18.3878278 11.3403363,18.0564177 11.5714827,17.7539225 C11.524809,17.8139767 11.4781352,17.8740309 11.4314614,17.9340851 C11.6692755,17.6271415 11.9448731,17.3513371 12.2515866,17.1133446 C12.1915774,17.1600534 12.1315683,17.2067622 12.0715591,17.253471 C12.37605,17.0221512 12.7049891,16.8286433 13.0561538,16.6818441 C12.9850319,16.7107591 12.9139099,16.7418983 12.8427879,16.7708133 C13.2028429,16.62179 13.5806784,16.5194754 13.9674041,16.4660939 C13.8896144,16.4772151 13.8096022,16.4883362 13.7318125,16.4972331 C14.074087,16.4527486 14.4208066,16.4438516 14.7630811,16.4883362 C14.6852914,16.4772151 14.6052792,16.4660939 14.5274896,16.457197 C14.8630964,16.5039058 15.1875903,16.5950992 15.5009715,16.7263287 C15.4298495,16.6974137 15.3587276,16.6662745 15.2876056,16.6373596 C15.7143374,16.8197463 16.1099534,17.0666358 16.476676,17.3491128 C16.4166669,17.302404 16.3566577,17.2556952 16.2966485,17.2089864 C16.8078377,17.6048992 17.2656854,18.0653146 17.6946397,18.5501965 C17.8413288,18.7147894 18.1080362,18.8104313 18.3236247,18.8104313 C18.5414357,18.8104313 18.8014754,18.7125652 18.9526096,18.5501965 C19.294884,18.1787503 19.2837712,17.6649534 18.9526096,17.2912829 C18.2413899,16.4905605 17.4257098,15.7165288 16.4633407,15.2294226 C16.1944107,15.0937446 15.9121454,14.9736363 15.6232124,14.8824429 C15.3320568,14.7890253 15.032011,14.7423165 14.7275201,14.7067288 C14.2141084,14.6466746 13.6829162,14.7022803 13.1806173,14.8045949 C11.2758821,15.1982834 9.70008595,16.7241045 9.18667423,18.5924569 C8.66214972,20.4897242 9.26224133,22.6294325 10.7446899,23.946176 C11.4625772,24.5845298 12.3493793,25.0560663 13.2984131,25.2251077 C13.5829009,25.276265 13.8718339,25.3140769 14.1607669,25.3229738 C14.4430322,25.3318707 14.7186299,25.3029557 14.9986726,25.2651438 C15.4765233,25.198417 15.9254808,25.033824 16.3633254,24.829195 C16.8122828,24.6178932 17.2101213,24.3331919 17.5990696,24.0306967 C17.9591246,23.7504439 18.2925088,23.4412761 18.60589,23.1120902 C19.2593231,22.4314761 19.8349665,21.6796867 20.4061648,20.9278973 C20.5261831,20.7677528 20.6462014,20.6098325 20.7684423,20.4496881 C20.7217685,20.5097422 20.6750947,20.5697964 20.6284209,20.6298506 C21.3618663,19.6956744 22.0686408,18.7325833 22.9176593,17.8962732 C23.1643636,17.6538322 23.4221808,17.4225124 23.6955558,17.2089864 C23.6355467,17.2556952 23.5755375,17.302404 23.5155284,17.3491128 C23.882251,17.0666358 24.2756444,16.8197463 24.7001537,16.6351353 C24.6290317,16.6640503 24.5579097,16.6951895 24.4867878,16.7241045 C24.8023915,16.5906508 25.1313306,16.4950089 25.4713825,16.4505243 C25.3935929,16.4616455 25.3135806,16.4727666 25.235791,16.4816635 C25.5780655,16.437179 25.9247851,16.4460759 26.2670595,16.4905605 C26.1892699,16.4794393 26.1092577,16.4683182 26.031468,16.4594212 C26.4181937,16.5128027 26.7960292,16.612893 27.1560841,16.7641406 C27.0849622,16.7352256 27.0138402,16.7040864 26.9427182,16.6751715 C27.293883,16.8241948 27.6250446,17.0154785 27.927313,17.2467983 C27.8673038,17.2000895 27.8072947,17.1533807 27.7472855,17.1066719 C28.053999,17.3446644 28.3295966,17.6204688 28.5674107,17.9274124 C28.5207369,17.8673582 28.4740631,17.807304 28.4273893,17.7472498 C28.6585357,18.0519692 28.8518986,18.3811551 28.9985876,18.7325833 C28.9696943,18.6614079 28.9385785,18.5902326 28.9096852,18.5190573 C29.0585968,18.8793824 29.1608346,19.2575013 29.2141761,19.6445172 C29.2030633,19.5666691 29.1919505,19.4865969 29.1830602,19.4087489 C29.2341792,19.797989 29.2341792,20.1916775 29.1830602,20.5831418 C29.1941731,20.5052938 29.2052859,20.4252215 29.2141761,20.3473735 C29.1608346,20.7343894 29.0608194,21.1125083 28.9096852,21.4728334 C28.9385785,21.4016581 28.9696943,21.3304827 28.9985876,21.2593074 C28.849676,21.6107356 28.6585357,21.9421457 28.4273893,22.2446409 C28.4740631,22.1845867 28.5207369,22.1245325 28.5674107,22.0644783 C28.3295966,22.3714219 28.053999,22.6472263 27.7472855,22.8852188 C27.8072947,22.83851 27.8673038,22.7918012 27.927313,22.7450924 C27.6228221,22.9764122 27.293883,23.1699201 26.9427182,23.3167192 C27.0138402,23.2878043 27.0849622,23.2566651 27.1560841,23.2277501 C26.7960292,23.3767734 26.4181937,23.479088 26.031468,23.5324694 C26.1092577,23.5213483 26.1892699,23.5102272 26.2670595,23.5013302 C25.9247851,23.5458148 25.580288,23.5547117 25.2380135,23.5102272 C25.3158032,23.5213483 25.3958154,23.5324694 25.4736051,23.5413664 C25.1268855,23.4946576 24.7912787,23.3967915 24.4712298,23.2611135 C24.5423518,23.2900285 24.6134738,23.3211677 24.6845957,23.3500827 C24.2578639,23.1654717 23.8644705,22.9185822 23.4955253,22.6361052 C23.5555345,22.682814 23.6155436,22.7295228 23.6755528,22.7762316 C23.1643636,22.3803188 22.706516,21.9243519 22.2797842,21.4416942 C22.1330951,21.2771012 21.8663877,21.1814594 21.6507992,21.1814594 C21.4329882,21.1814594 21.1729485,21.2793255 21.0218143,21.4416942 C20.6817624,21.8242616 20.6906527,22.3380585 21.0218143,22.7095047 C21.3863144,23.1187629 21.7730401,23.5124514 22.1953268,23.8638796 Z" id="Path" fill="#222222" fill-rule="nonzero"></path>
    </g>
</svg>